<mxfile host="app.diagrams.net" agent="Mozilla/5.0 (Macintosh; Intel Mac OS X 10_15_7) AppleWebKit/537.36 (KHTML, like Gecko) Chrome/134.0.0.0 Safari/537.36" version="26.1.1">
  <diagram name="Page-1" id="24iihpHDc6aeQJ8DXGH1">
    <mxGraphModel dx="2901" dy="2205" grid="1" gridSize="10" guides="1" tooltips="1" connect="1" arrows="1" fold="1" page="1" pageScale="1" pageWidth="827" pageHeight="1169" math="0" shadow="0">
      <root>
        <mxCell id="0" />
        <mxCell id="1" parent="0" />
        <mxCell id="3IPb8XLYJPsMoPGz81Bw-21" style="edgeStyle=orthogonalEdgeStyle;rounded=0;orthogonalLoop=1;jettySize=auto;html=1;" parent="1" source="3IPb8XLYJPsMoPGz81Bw-1" target="3IPb8XLYJPsMoPGz81Bw-10" edge="1">
          <mxGeometry relative="1" as="geometry" />
        </mxCell>
        <mxCell id="3IPb8XLYJPsMoPGz81Bw-22" value="initial call" style="edgeLabel;html=1;align=center;verticalAlign=middle;resizable=0;points=[];" parent="3IPb8XLYJPsMoPGz81Bw-21" vertex="1" connectable="0">
          <mxGeometry x="0.0465" y="-2" relative="1" as="geometry">
            <mxPoint as="offset" />
          </mxGeometry>
        </mxCell>
        <mxCell id="3IPb8XLYJPsMoPGz81Bw-1" value="Recruitor" style="shape=umlActor;verticalLabelPosition=bottom;verticalAlign=top;html=1;outlineConnect=0;" parent="1" vertex="1">
          <mxGeometry x="620" y="-30" width="30" height="60" as="geometry" />
        </mxCell>
        <mxCell id="3IPb8XLYJPsMoPGz81Bw-2" value="" style="rounded=0;whiteSpace=wrap;html=1;" parent="1" vertex="1">
          <mxGeometry x="160" y="130" width="1000" height="560" as="geometry" />
        </mxCell>
        <mxCell id="3IPb8XLYJPsMoPGz81Bw-3" value="Jigsaw" style="rounded=0;whiteSpace=wrap;html=1;" parent="1" vertex="1">
          <mxGeometry x="5" y="160" width="110" height="60" as="geometry" />
        </mxCell>
        <mxCell id="3IPb8XLYJPsMoPGz81Bw-5" style="edgeStyle=orthogonalEdgeStyle;rounded=0;orthogonalLoop=1;jettySize=auto;html=1;entryX=1;entryY=0.5;entryDx=0;entryDy=0;exitX=0;exitY=0.5;exitDx=0;exitDy=0;" parent="1" source="3IPb8XLYJPsMoPGz81Bw-4" edge="1" target="3IPb8XLYJPsMoPGz81Bw-3">
          <mxGeometry relative="1" as="geometry">
            <mxPoint x="219" y="220" as="sourcePoint" />
            <mxPoint x="99" y="220" as="targetPoint" />
          </mxGeometry>
        </mxCell>
        <mxCell id="3IPb8XLYJPsMoPGz81Bw-6" value="Gets list of&amp;nbsp;&lt;div&gt;interviewers&amp;nbsp;&lt;div&gt;based on&amp;nbsp;&lt;/div&gt;&lt;div&gt;skillsets&lt;/div&gt;&lt;/div&gt;" style="edgeLabel;html=1;align=center;verticalAlign=middle;resizable=0;points=[];" parent="3IPb8XLYJPsMoPGz81Bw-5" vertex="1" connectable="0">
          <mxGeometry x="-0.06" y="-1" relative="1" as="geometry">
            <mxPoint x="-30" y="1" as="offset" />
          </mxGeometry>
        </mxCell>
        <mxCell id="3IPb8XLYJPsMoPGz81Bw-4" value="Skillset Matching Service" style="rounded=0;whiteSpace=wrap;html=1;" parent="1" vertex="1">
          <mxGeometry x="250" y="160" width="120" height="60" as="geometry" />
        </mxCell>
        <mxCell id="3IPb8XLYJPsMoPGz81Bw-26" style="edgeStyle=orthogonalEdgeStyle;rounded=0;orthogonalLoop=1;jettySize=auto;html=1;entryX=0;entryY=0.5;entryDx=0;entryDy=0;" parent="1" source="3IPb8XLYJPsMoPGz81Bw-7" target="3IPb8XLYJPsMoPGz81Bw-25" edge="1">
          <mxGeometry relative="1" as="geometry" />
        </mxCell>
        <mxCell id="3IPb8XLYJPsMoPGz81Bw-28" value="interview Slots" style="edgeLabel;html=1;align=center;verticalAlign=middle;resizable=0;points=[];" parent="3IPb8XLYJPsMoPGz81Bw-26" vertex="1" connectable="0">
          <mxGeometry x="0.5648" relative="1" as="geometry">
            <mxPoint as="offset" />
          </mxGeometry>
        </mxCell>
        <mxCell id="3IPb8XLYJPsMoPGz81Bw-27" style="edgeStyle=orthogonalEdgeStyle;rounded=0;orthogonalLoop=1;jettySize=auto;html=1;entryX=0;entryY=0.5;entryDx=0;entryDy=0;" parent="1" source="3IPb8XLYJPsMoPGz81Bw-7" target="3IPb8XLYJPsMoPGz81Bw-24" edge="1">
          <mxGeometry relative="1" as="geometry" />
        </mxCell>
        <mxCell id="3IPb8XLYJPsMoPGz81Bw-29" value="check leaves" style="edgeLabel;html=1;align=center;verticalAlign=middle;resizable=0;points=[];" parent="3IPb8XLYJPsMoPGz81Bw-27" vertex="1" connectable="0">
          <mxGeometry x="0.5577" y="-2" relative="1" as="geometry">
            <mxPoint as="offset" />
          </mxGeometry>
        </mxCell>
        <mxCell id="3IPb8XLYJPsMoPGz81Bw-7" value="&lt;div&gt;&lt;span style=&quot;background-color: transparent; color: light-dark(rgb(0, 0, 0), rgb(255, 255, 255));&quot;&gt;Availability&lt;/span&gt;&lt;/div&gt;Service" style="rounded=0;whiteSpace=wrap;html=1;" parent="1" vertex="1">
          <mxGeometry x="1010" y="510" width="120" height="60" as="geometry" />
        </mxCell>
        <mxCell id="3IPb8XLYJPsMoPGz81Bw-14" style="edgeStyle=orthogonalEdgeStyle;rounded=0;orthogonalLoop=1;jettySize=auto;html=1;" parent="1" source="3IPb8XLYJPsMoPGz81Bw-40" target="3IPb8XLYJPsMoPGz81Bw-1" edge="1">
          <mxGeometry relative="1" as="geometry" />
        </mxCell>
        <mxCell id="3IPb8XLYJPsMoPGz81Bw-16" value="Searches interviewer" style="edgeLabel;html=1;align=center;verticalAlign=middle;resizable=0;points=[];" parent="3IPb8XLYJPsMoPGz81Bw-14" vertex="1" connectable="0">
          <mxGeometry x="0.0667" relative="1" as="geometry">
            <mxPoint as="offset" />
          </mxGeometry>
        </mxCell>
        <mxCell id="3IPb8XLYJPsMoPGz81Bw-44" style="edgeStyle=orthogonalEdgeStyle;rounded=0;orthogonalLoop=1;jettySize=auto;html=1;entryX=0.75;entryY=0;entryDx=0;entryDy=0;" parent="1" source="3IPb8XLYJPsMoPGz81Bw-50" target="3IPb8XLYJPsMoPGz81Bw-40" edge="1">
          <mxGeometry relative="1" as="geometry" />
        </mxCell>
        <mxCell id="3IPb8XLYJPsMoPGz81Bw-8" value="Interviewer Selector" style="rounded=0;whiteSpace=wrap;html=1;" parent="1" vertex="1">
          <mxGeometry x="810" y="180" width="120" height="60" as="geometry" />
        </mxCell>
        <mxCell id="3IPb8XLYJPsMoPGz81Bw-10" value="Candidate" style="shape=umlActor;verticalLabelPosition=bottom;verticalAlign=top;html=1;outlineConnect=0;" parent="1" vertex="1">
          <mxGeometry x="950" y="-30" width="30" height="60" as="geometry" />
        </mxCell>
        <mxCell id="3IPb8XLYJPsMoPGz81Bw-32" style="edgeStyle=orthogonalEdgeStyle;rounded=0;orthogonalLoop=1;jettySize=auto;html=1;" parent="1" source="3IPb8XLYJPsMoPGz81Bw-20" target="3IPb8XLYJPsMoPGz81Bw-7" edge="1">
          <mxGeometry relative="1" as="geometry" />
        </mxCell>
        <mxCell id="3IPb8XLYJPsMoPGz81Bw-33" value="gets Interviewer&lt;br&gt;availability" style="edgeLabel;html=1;align=center;verticalAlign=middle;resizable=0;points=[];" parent="3IPb8XLYJPsMoPGz81Bw-32" vertex="1" connectable="0">
          <mxGeometry x="0.2258" relative="1" as="geometry">
            <mxPoint as="offset" />
          </mxGeometry>
        </mxCell>
        <mxCell id="3IPb8XLYJPsMoPGz81Bw-35" style="edgeStyle=orthogonalEdgeStyle;rounded=0;orthogonalLoop=1;jettySize=auto;html=1;exitX=1;exitY=0.5;exitDx=0;exitDy=0;" parent="1" source="3IPb8XLYJPsMoPGz81Bw-8" target="3IPb8XLYJPsMoPGz81Bw-10" edge="1">
          <mxGeometry relative="1" as="geometry">
            <mxPoint x="1035" y="360" as="sourcePoint" />
            <mxPoint x="980" y="-10" as="targetPoint" />
          </mxGeometry>
        </mxCell>
        <mxCell id="3IPb8XLYJPsMoPGz81Bw-36" value="Sends available slots" style="edgeLabel;html=1;align=center;verticalAlign=middle;resizable=0;points=[];" parent="3IPb8XLYJPsMoPGz81Bw-35" vertex="1" connectable="0">
          <mxGeometry x="0.5526" y="1" relative="1" as="geometry">
            <mxPoint x="1" y="55" as="offset" />
          </mxGeometry>
        </mxCell>
        <mxCell id="3IPb8XLYJPsMoPGz81Bw-38" style="edgeStyle=orthogonalEdgeStyle;rounded=0;orthogonalLoop=1;jettySize=auto;html=1;" parent="1" source="3IPb8XLYJPsMoPGz81Bw-20" target="3IPb8XLYJPsMoPGz81Bw-37" edge="1">
          <mxGeometry relative="1" as="geometry" />
        </mxCell>
        <mxCell id="3IPb8XLYJPsMoPGz81Bw-39" value="Send Invites" style="edgeLabel;html=1;align=center;verticalAlign=middle;resizable=0;points=[];" parent="3IPb8XLYJPsMoPGz81Bw-38" vertex="1" connectable="0">
          <mxGeometry x="0.0544" y="-2" relative="1" as="geometry">
            <mxPoint as="offset" />
          </mxGeometry>
        </mxCell>
        <mxCell id="3IPb8XLYJPsMoPGz81Bw-48" style="edgeStyle=orthogonalEdgeStyle;rounded=0;orthogonalLoop=1;jettySize=auto;html=1;entryX=0.5;entryY=1;entryDx=0;entryDy=0;" parent="1" source="3IPb8XLYJPsMoPGz81Bw-20" target="3IPb8XLYJPsMoPGz81Bw-8" edge="1">
          <mxGeometry relative="1" as="geometry" />
        </mxCell>
        <mxCell id="3IPb8XLYJPsMoPGz81Bw-49" value="search new &lt;br&gt;interviewer if &lt;br&gt;interviewer &lt;br&gt;rejects" style="edgeLabel;html=1;align=center;verticalAlign=middle;resizable=0;points=[];" parent="3IPb8XLYJPsMoPGz81Bw-48" vertex="1" connectable="0">
          <mxGeometry x="0.1852" y="-4" relative="1" as="geometry">
            <mxPoint as="offset" />
          </mxGeometry>
        </mxCell>
        <mxCell id="najs6hwwCmNX_E1AZXvQ-1" style="edgeStyle=orthogonalEdgeStyle;rounded=0;orthogonalLoop=1;jettySize=auto;html=1;entryX=0.5;entryY=1;entryDx=0;entryDy=0;" parent="1" source="3IPb8XLYJPsMoPGz81Bw-20" target="3IPb8XLYJPsMoPGz81Bw-40" edge="1">
          <mxGeometry relative="1" as="geometry" />
        </mxCell>
        <mxCell id="3IPb8XLYJPsMoPGz81Bw-20" value="Scheduling&lt;br&gt;Service" style="rounded=0;whiteSpace=wrap;html=1;" parent="1" vertex="1">
          <mxGeometry x="650" y="600" width="120" height="60" as="geometry" />
        </mxCell>
        <mxCell id="3IPb8XLYJPsMoPGz81Bw-24" value="Leave Planner" style="rounded=0;whiteSpace=wrap;html=1;" parent="1" vertex="1">
          <mxGeometry x="1290" y="280" width="120" height="60" as="geometry" />
        </mxCell>
        <mxCell id="3IPb8XLYJPsMoPGz81Bw-25" value="GoodTime" style="rounded=0;whiteSpace=wrap;html=1;" parent="1" vertex="1">
          <mxGeometry x="1290" y="90" width="120" height="60" as="geometry" />
        </mxCell>
        <mxCell id="3IPb8XLYJPsMoPGz81Bw-37" value="Zoom" style="rounded=0;whiteSpace=wrap;html=1;" parent="1" vertex="1">
          <mxGeometry x="340" y="740" width="120" height="60" as="geometry" />
        </mxCell>
        <mxCell id="3IPb8XLYJPsMoPGz81Bw-43" style="edgeStyle=orthogonalEdgeStyle;rounded=0;orthogonalLoop=1;jettySize=auto;html=1;entryX=0.25;entryY=0;entryDx=0;entryDy=0;" parent="1" source="3IPb8XLYJPsMoPGz81Bw-40" target="3IPb8XLYJPsMoPGz81Bw-20" edge="1">
          <mxGeometry relative="1" as="geometry" />
        </mxCell>
        <mxCell id="3IPb8XLYJPsMoPGz81Bw-41" style="edgeStyle=orthogonalEdgeStyle;rounded=0;orthogonalLoop=1;jettySize=auto;html=1;" parent="1" source="3IPb8XLYJPsMoPGz81Bw-1" target="3IPb8XLYJPsMoPGz81Bw-40" edge="1">
          <mxGeometry relative="1" as="geometry" />
        </mxCell>
        <mxCell id="3IPb8XLYJPsMoPGz81Bw-42" value="Track interview progress" style="edgeLabel;html=1;align=center;verticalAlign=middle;resizable=0;points=[];" parent="3IPb8XLYJPsMoPGz81Bw-41" vertex="1" connectable="0">
          <mxGeometry x="-0.0542" y="1" relative="1" as="geometry">
            <mxPoint as="offset" />
          </mxGeometry>
        </mxCell>
        <mxCell id="3IPb8XLYJPsMoPGz81Bw-46" style="edgeStyle=orthogonalEdgeStyle;rounded=0;orthogonalLoop=1;jettySize=auto;html=1;" parent="1" source="3IPb8XLYJPsMoPGz81Bw-45" target="3IPb8XLYJPsMoPGz81Bw-40" edge="1">
          <mxGeometry relative="1" as="geometry" />
        </mxCell>
        <mxCell id="3IPb8XLYJPsMoPGz81Bw-47" value="Interview Feedback" style="edgeLabel;html=1;align=center;verticalAlign=middle;resizable=0;points=[];" parent="3IPb8XLYJPsMoPGz81Bw-46" vertex="1" connectable="0">
          <mxGeometry x="-0.3304" y="-4" relative="1" as="geometry">
            <mxPoint as="offset" />
          </mxGeometry>
        </mxCell>
        <mxCell id="3IPb8XLYJPsMoPGz81Bw-45" value="Greenhouse" style="rounded=0;whiteSpace=wrap;html=1;" parent="1" vertex="1">
          <mxGeometry y="270" width="120" height="60" as="geometry" />
        </mxCell>
        <mxCell id="3IPb8XLYJPsMoPGz81Bw-51" value="" style="edgeStyle=orthogonalEdgeStyle;rounded=0;orthogonalLoop=1;jettySize=auto;html=1;" parent="1" source="3IPb8XLYJPsMoPGz81Bw-50" target="3IPb8XLYJPsMoPGz81Bw-40" edge="1">
          <mxGeometry relative="1" as="geometry" />
        </mxCell>
        <mxCell id="3IPb8XLYJPsMoPGz81Bw-52" value="" style="edgeStyle=orthogonalEdgeStyle;rounded=0;orthogonalLoop=1;jettySize=auto;html=1;" parent="1" source="3IPb8XLYJPsMoPGz81Bw-50" target="3IPb8XLYJPsMoPGz81Bw-4" edge="1">
          <mxGeometry relative="1" as="geometry" />
        </mxCell>
        <mxCell id="3IPb8XLYJPsMoPGz81Bw-53" style="edgeStyle=orthogonalEdgeStyle;rounded=0;orthogonalLoop=1;jettySize=auto;html=1;entryX=1;entryY=0.5;entryDx=0;entryDy=0;" parent="1" source="3IPb8XLYJPsMoPGz81Bw-50" target="3IPb8XLYJPsMoPGz81Bw-8" edge="1">
          <mxGeometry relative="1" as="geometry" />
        </mxCell>
        <mxCell id="3IPb8XLYJPsMoPGz81Bw-54" style="edgeStyle=orthogonalEdgeStyle;rounded=0;orthogonalLoop=1;jettySize=auto;html=1;entryX=0.25;entryY=1;entryDx=0;entryDy=0;" parent="1" source="3IPb8XLYJPsMoPGz81Bw-50" target="3IPb8XLYJPsMoPGz81Bw-7" edge="1">
          <mxGeometry relative="1" as="geometry" />
        </mxCell>
        <mxCell id="3IPb8XLYJPsMoPGz81Bw-55" style="edgeStyle=orthogonalEdgeStyle;rounded=0;orthogonalLoop=1;jettySize=auto;html=1;entryX=0.896;entryY=0;entryDx=0;entryDy=0;entryPerimeter=0;" parent="1" source="3IPb8XLYJPsMoPGz81Bw-1" target="3IPb8XLYJPsMoPGz81Bw-50" edge="1">
          <mxGeometry relative="1" as="geometry" />
        </mxCell>
        <mxCell id="najs6hwwCmNX_E1AZXvQ-2" value="" style="edgeStyle=orthogonalEdgeStyle;rounded=0;orthogonalLoop=1;jettySize=auto;html=1;" parent="1" source="3IPb8XLYJPsMoPGz81Bw-8" target="3IPb8XLYJPsMoPGz81Bw-40" edge="1">
          <mxGeometry relative="1" as="geometry">
            <mxPoint x="600" y="425" as="sourcePoint" />
            <mxPoint x="680" y="40" as="targetPoint" />
          </mxGeometry>
        </mxCell>
        <mxCell id="3IPb8XLYJPsMoPGz81Bw-40" value="Interview Dashboard" style="rounded=0;whiteSpace=wrap;html=1;" parent="1" vertex="1">
          <mxGeometry x="340" y="310" width="120" height="60" as="geometry" />
        </mxCell>
        <mxCell id="najs6hwwCmNX_E1AZXvQ-4" value="" style="edgeStyle=orthogonalEdgeStyle;rounded=0;orthogonalLoop=1;jettySize=auto;html=1;entryX=0.75;entryY=0;entryDx=0;entryDy=0;" parent="1" source="3IPb8XLYJPsMoPGz81Bw-8" target="3IPb8XLYJPsMoPGz81Bw-50" edge="1">
          <mxGeometry relative="1" as="geometry">
            <mxPoint x="450" y="425" as="sourcePoint" />
            <mxPoint x="730" y="220" as="targetPoint" />
          </mxGeometry>
        </mxCell>
        <mxCell id="3IPb8XLYJPsMoPGz81Bw-50" value="Chatbot" style="rounded=0;whiteSpace=wrap;html=1;" parent="1" vertex="1">
          <mxGeometry x="440" y="410" width="120" height="60" as="geometry" />
        </mxCell>
        <mxCell id="najs6hwwCmNX_E1AZXvQ-5" value="Interviewer/&lt;br&gt;Interviewee&lt;br&gt;Database" style="shape=cylinder3;whiteSpace=wrap;html=1;boundedLbl=1;backgroundOutline=1;size=15;" parent="1" vertex="1">
          <mxGeometry x="1030" y="170" width="80" height="80" as="geometry" />
        </mxCell>
        <mxCell id="najs6hwwCmNX_E1AZXvQ-6" style="edgeStyle=orthogonalEdgeStyle;rounded=0;orthogonalLoop=1;jettySize=auto;html=1;entryX=0.5;entryY=1;entryDx=0;entryDy=0;entryPerimeter=0;exitX=1;exitY=0.5;exitDx=0;exitDy=0;" parent="1" source="3IPb8XLYJPsMoPGz81Bw-8" target="najs6hwwCmNX_E1AZXvQ-5" edge="1">
          <mxGeometry relative="1" as="geometry" />
        </mxCell>
        <mxCell id="najs6hwwCmNX_E1AZXvQ-7" value="Notification&lt;br&gt;Service" style="shape=tape;whiteSpace=wrap;html=1;" parent="1" vertex="1">
          <mxGeometry x="230" y="460" width="120" height="100" as="geometry" />
        </mxCell>
        <mxCell id="najs6hwwCmNX_E1AZXvQ-8" style="edgeStyle=orthogonalEdgeStyle;rounded=0;orthogonalLoop=1;jettySize=auto;html=1;entryX=0;entryY=0.65;entryDx=0;entryDy=0;entryPerimeter=0;" parent="1" source="3IPb8XLYJPsMoPGz81Bw-45" target="najs6hwwCmNX_E1AZXvQ-7" edge="1">
          <mxGeometry relative="1" as="geometry" />
        </mxCell>
        <mxCell id="najs6hwwCmNX_E1AZXvQ-9" style="edgeStyle=orthogonalEdgeStyle;rounded=0;orthogonalLoop=1;jettySize=auto;html=1;" parent="1" source="najs6hwwCmNX_E1AZXvQ-7" target="3IPb8XLYJPsMoPGz81Bw-8" edge="1">
          <mxGeometry relative="1" as="geometry" />
        </mxCell>
        <mxCell id="najs6hwwCmNX_E1AZXvQ-11" style="edgeStyle=orthogonalEdgeStyle;rounded=0;orthogonalLoop=1;jettySize=auto;html=1;entryX=0;entryY=0.75;entryDx=0;entryDy=0;" parent="1" source="najs6hwwCmNX_E1AZXvQ-10" target="3IPb8XLYJPsMoPGz81Bw-45" edge="1">
          <mxGeometry relative="1" as="geometry" />
        </mxCell>
        <mxCell id="najs6hwwCmNX_E1AZXvQ-10" value="Interviewer" style="shape=umlActor;verticalLabelPosition=bottom;verticalAlign=top;html=1;outlineConnect=0;" parent="1" vertex="1">
          <mxGeometry x="220" y="-20" width="30" height="60" as="geometry" />
        </mxCell>
      </root>
    </mxGraphModel>
  </diagram>
</mxfile>
